<?xml version="1.0" encoding="UTF-8" standalone="no"?>
<!-- Created with Inkscape (http://www.inkscape.org/) -->

<svg
   xmlns:dc="http://purl.org/dc/elements/1.1/"
   xmlns:cc="http://creativecommons.org/ns#"
   xmlns:rdf="http://www.w3.org/1999/02/22-rdf-syntax-ns#"
   xmlns:svg="http://www.w3.org/2000/svg"
   xmlns="http://www.w3.org/2000/svg"
   version="1.1"
   width="18"
   height="18"
   viewBox="0 0 18 18"
   id="Layer_1"
   xml:space="preserve"><metadata
   id="metadata9"><rdf:RDF><cc:Work
       rdf:about=""><dc:format>image/svg+xml</dc:format><dc:type
         rdf:resource="http://purl.org/dc/dcmitype/StillImage" /><dc:title></dc:title></cc:Work></rdf:RDF></metadata><defs
   id="defs7" />
<path
   d="M 18,9 C 18,8.662 17.978,8.329 17.941,8 L 16.93,8 C 16.479,4.383 13.617,1.521 10,1.069 l 0,-1.01 C 9.671,0.022 9.338,0 9,0 8.662,0 8.329,0.022 8,0.059 L 8,1.07 C 4.383,1.521 1.521,4.383 1.069,8 L 0.059,8 C 0.022,8.329 0,8.662 0,9 0,9.338 0.022,9.671 0.059,10 l 1.011,0 c 0.451,3.617 3.313,6.479 6.93,6.931 l 0,1.011 C 8.329,17.978 8.662,18 9,18 c 0.338,0 0.671,-0.022 1,-0.059 l 0,-1.011 c 3.616,-0.452 6.479,-3.313 6.931,-6.93 l 1.011,0 C 17.978,9.672 18,9.339 18,9 z M 10,14.91 10,12 C 10,11.447 9.552,11 9,11 8.448,11 8,11.447 8,12 l 0,2.91 C 5.49,14.488 3.513,12.512 3.091,10.001 L 6,10 C 6.553,10 7,9.552 7,9 7,8.448 6.553,8 6,8 L 3.09,8 C 3.513,5.49 5.49,3.513 8,3.09 L 8,6 C 8,6.552 8.448,7 9,7 9.552,7 10,6.552 10,6 L 10,3.09 C 12.511,3.512 14.488,5.489 14.91,8 L 12,8 c -0.553,0 -1,0.448 -1,1 0,0.552 0.447,1 1,1 l 2.91,10e-4 C 14.487,12.512 12.511,14.488 10,14.91 z"
   id="path3" />
</svg>